<mxfile host="app.diagrams.net" modified="2022-06-20T09:53:10.546Z" agent="5.0 (Macintosh; Intel Mac OS X 10_15_7) AppleWebKit/537.36 (KHTML, like Gecko) Chrome/102.0.0.0 Safari/537.36" etag="GpmWu5ULf_r8EWK0Vxm-" version="20.0.1" type="github">
  <diagram id="ayQD0WuWZAh9RELpzeV6" name="BRCallARContext">
    <mxGraphModel dx="1258" dy="576" grid="1" gridSize="10" guides="1" tooltips="1" connect="1" arrows="1" fold="1" page="1" pageScale="1" pageWidth="827" pageHeight="1169" math="0" shadow="0">
      <root>
        <mxCell id="0" />
        <mxCell id="1" parent="0" />
        <mxCell id="kSkivTPudRlOcXTH8NW7-1" value="" style="edgeStyle=orthogonalEdgeStyle;rounded=0;orthogonalLoop=1;jettySize=auto;html=1;exitX=1;exitY=0.5;exitDx=0;exitDy=0;entryX=0;entryY=0.5;entryDx=0;entryDy=0;" parent="1" source="kSkivTPudRlOcXTH8NW7-24" target="kSkivTPudRlOcXTH8NW7-3" edge="1">
          <mxGeometry relative="1" as="geometry">
            <mxPoint x="413.1600000000001" y="75.70800000000008" as="targetPoint" />
            <mxPoint x="240" y="168.9999999999999" as="sourcePoint" />
          </mxGeometry>
        </mxCell>
        <mxCell id="kSkivTPudRlOcXTH8NW7-2" value="BRCallARDataSource" style="swimlane;fontStyle=1;align=center;verticalAlign=top;childLayout=stackLayout;horizontal=1;startSize=26;horizontalStack=0;resizeParent=1;resizeParentMax=0;resizeLast=0;collapsible=1;marginBottom=0;" parent="1" vertex="1">
          <mxGeometry x="320" width="160" height="294" as="geometry" />
        </mxCell>
        <mxCell id="kSkivTPudRlOcXTH8NW7-3" value="beauty" style="text;strokeColor=none;fillColor=none;align=left;verticalAlign=top;spacingLeft=4;spacingRight=4;overflow=hidden;rotatable=0;points=[[0,0.5],[1,0.5]];portConstraint=eastwest;" parent="kSkivTPudRlOcXTH8NW7-2" vertex="1">
          <mxGeometry y="26" width="160" height="26" as="geometry" />
        </mxCell>
        <mxCell id="kSkivTPudRlOcXTH8NW7-4" value="mask" style="text;strokeColor=none;fillColor=none;align=left;verticalAlign=top;spacingLeft=4;spacingRight=4;overflow=hidden;rotatable=0;points=[[0,0.5],[1,0.5]];portConstraint=eastwest;" parent="kSkivTPudRlOcXTH8NW7-2" vertex="1">
          <mxGeometry y="52" width="160" height="26" as="geometry" />
        </mxCell>
        <mxCell id="kSkivTPudRlOcXTH8NW7-5" value="gesture:NSArray" style="text;strokeColor=none;fillColor=none;align=left;verticalAlign=top;spacingLeft=4;spacingRight=4;overflow=hidden;rotatable=0;points=[[0,0.5],[1,0.5]];portConstraint=eastwest;" parent="kSkivTPudRlOcXTH8NW7-2" vertex="1">
          <mxGeometry y="78" width="160" height="26" as="geometry" />
        </mxCell>
        <mxCell id="kSkivTPudRlOcXTH8NW7-6" value="" style="line;strokeWidth=1;fillColor=none;align=left;verticalAlign=middle;spacingTop=-1;spacingLeft=3;spacingRight=3;rotatable=0;labelPosition=right;points=[];portConstraint=eastwest;" parent="kSkivTPudRlOcXTH8NW7-2" vertex="1">
          <mxGeometry y="104" width="160" height="8" as="geometry" />
        </mxCell>
        <mxCell id="kSkivTPudRlOcXTH8NW7-7" value="clearAll" style="text;strokeColor=none;fillColor=none;align=left;verticalAlign=top;spacingLeft=4;spacingRight=4;overflow=hidden;rotatable=0;points=[[0,0.5],[1,0.5]];portConstraint=eastwest;" parent="kSkivTPudRlOcXTH8NW7-2" vertex="1">
          <mxGeometry y="112" width="160" height="26" as="geometry" />
        </mxCell>
        <mxCell id="kSkivTPudRlOcXTH8NW7-8" value="addMaskItem" style="text;strokeColor=none;fillColor=none;align=left;verticalAlign=top;spacingLeft=4;spacingRight=4;overflow=hidden;rotatable=0;points=[[0,0.5],[1,0.5]];portConstraint=eastwest;" parent="kSkivTPudRlOcXTH8NW7-2" vertex="1">
          <mxGeometry y="138" width="160" height="26" as="geometry" />
        </mxCell>
        <mxCell id="kSkivTPudRlOcXTH8NW7-9" value="removeMaskItem" style="text;strokeColor=none;fillColor=none;align=left;verticalAlign=top;spacingLeft=4;spacingRight=4;overflow=hidden;rotatable=0;points=[[0,0.5],[1,0.5]];portConstraint=eastwest;" parent="kSkivTPudRlOcXTH8NW7-2" vertex="1">
          <mxGeometry y="164" width="160" height="26" as="geometry" />
        </mxCell>
        <mxCell id="kSkivTPudRlOcXTH8NW7-10" value="addGestureItems" style="text;strokeColor=none;fillColor=none;align=left;verticalAlign=top;spacingLeft=4;spacingRight=4;overflow=hidden;rotatable=0;points=[[0,0.5],[1,0.5]];portConstraint=eastwest;" parent="kSkivTPudRlOcXTH8NW7-2" vertex="1">
          <mxGeometry y="190" width="160" height="26" as="geometry" />
        </mxCell>
        <mxCell id="kSkivTPudRlOcXTH8NW7-11" value="removeAllGestures" style="text;strokeColor=none;fillColor=none;align=left;verticalAlign=top;spacingLeft=4;spacingRight=4;overflow=hidden;rotatable=0;points=[[0,0.5],[1,0.5]];portConstraint=eastwest;" parent="kSkivTPudRlOcXTH8NW7-2" vertex="1">
          <mxGeometry y="216" width="160" height="26" as="geometry" />
        </mxCell>
        <mxCell id="kSkivTPudRlOcXTH8NW7-12" value="setBeautyParameters" style="text;strokeColor=none;fillColor=none;align=left;verticalAlign=top;spacingLeft=4;spacingRight=4;overflow=hidden;rotatable=0;points=[[0,0.5],[1,0.5]];portConstraint=eastwest;" parent="kSkivTPudRlOcXTH8NW7-2" vertex="1">
          <mxGeometry y="242" width="160" height="26" as="geometry" />
        </mxCell>
        <mxCell id="kSkivTPudRlOcXTH8NW7-13" value="clearBeauty" style="text;strokeColor=none;fillColor=none;align=left;verticalAlign=top;spacingLeft=4;spacingRight=4;overflow=hidden;rotatable=0;points=[[0,0.5],[1,0.5]];portConstraint=eastwest;" parent="kSkivTPudRlOcXTH8NW7-2" vertex="1">
          <mxGeometry y="268" width="160" height="26" as="geometry" />
        </mxCell>
        <mxCell id="kSkivTPudRlOcXTH8NW7-15" value="BRCallARContextPendingAction" style="swimlane;fontStyle=1;align=center;verticalAlign=top;childLayout=stackLayout;horizontal=1;startSize=26;horizontalStack=0;resizeParent=1;resizeParentMax=0;resizeLast=0;collapsible=1;marginBottom=0;" parent="1" vertex="1">
          <mxGeometry x="220" y="532" width="190" height="34" as="geometry" />
        </mxCell>
        <mxCell id="kSkivTPudRlOcXTH8NW7-16" value="" style="line;strokeWidth=1;fillColor=none;align=left;verticalAlign=middle;spacingTop=-1;spacingLeft=3;spacingRight=3;rotatable=0;labelPosition=right;points=[];portConstraint=eastwest;" parent="kSkivTPudRlOcXTH8NW7-15" vertex="1">
          <mxGeometry y="26" width="190" height="8" as="geometry" />
        </mxCell>
        <mxCell id="kSkivTPudRlOcXTH8NW7-17" style="edgeStyle=orthogonalEdgeStyle;rounded=0;orthogonalLoop=1;jettySize=auto;html=1;exitX=0.5;exitY=1;exitDx=0;exitDy=0;entryX=0.5;entryY=0;entryDx=0;entryDy=0;" parent="1" source="kSkivTPudRlOcXTH8NW7-18" target="kSkivTPudRlOcXTH8NW7-36" edge="1">
          <mxGeometry relative="1" as="geometry" />
        </mxCell>
        <mxCell id="kSkivTPudRlOcXTH8NW7-18" value="BRCallARContextRunningAction" style="swimlane;fontStyle=1;align=center;verticalAlign=top;childLayout=stackLayout;horizontal=1;startSize=26;horizontalStack=0;resizeParent=1;resizeParentMax=0;resizeLast=0;collapsible=1;marginBottom=0;" parent="1" vertex="1">
          <mxGeometry x="430" y="532" width="200" height="34" as="geometry" />
        </mxCell>
        <mxCell id="kSkivTPudRlOcXTH8NW7-19" value="" style="line;strokeWidth=1;fillColor=none;align=left;verticalAlign=middle;spacingTop=-1;spacingLeft=3;spacingRight=3;rotatable=0;labelPosition=right;points=[];portConstraint=eastwest;" parent="kSkivTPudRlOcXTH8NW7-18" vertex="1">
          <mxGeometry y="26" width="200" height="8" as="geometry" />
        </mxCell>
        <mxCell id="kSkivTPudRlOcXTH8NW7-20" value="Extends" style="endArrow=block;endSize=16;endFill=0;html=1;rounded=0;entryX=0.214;entryY=1.096;entryDx=0;entryDy=0;exitX=0.5;exitY=0;exitDx=0;exitDy=0;entryPerimeter=0;" parent="1" source="kSkivTPudRlOcXTH8NW7-15" target="kSkivTPudRlOcXTH8NW7-43" edge="1">
          <mxGeometry width="160" relative="1" as="geometry">
            <mxPoint x="354" y="448.75" as="sourcePoint" />
            <mxPoint x="514" y="448.75" as="targetPoint" />
          </mxGeometry>
        </mxCell>
        <mxCell id="kSkivTPudRlOcXTH8NW7-21" value="Extends" style="endArrow=block;endSize=16;endFill=0;html=1;rounded=0;entryX=0.729;entryY=1.019;entryDx=0;entryDy=0;exitX=0.5;exitY=0;exitDx=0;exitDy=0;entryPerimeter=0;" parent="1" source="kSkivTPudRlOcXTH8NW7-18" target="kSkivTPudRlOcXTH8NW7-43" edge="1">
          <mxGeometry width="160" relative="1" as="geometry">
            <mxPoint x="364" y="458.75" as="sourcePoint" />
            <mxPoint x="468.8499999999999" y="381" as="targetPoint" />
          </mxGeometry>
        </mxCell>
        <mxCell id="kSkivTPudRlOcXTH8NW7-22" value="BRCallARContext" style="swimlane;fontStyle=1;align=center;verticalAlign=top;childLayout=stackLayout;horizontal=1;startSize=26;horizontalStack=0;resizeParent=1;resizeParentMax=0;resizeLast=0;collapsible=1;marginBottom=0;" parent="1" vertex="1">
          <mxGeometry x="30" width="200" height="346" as="geometry" />
        </mxCell>
        <mxCell id="kSkivTPudRlOcXTH8NW7-24" value="dataSource:BRARDataSource" style="text;strokeColor=none;fillColor=none;align=left;verticalAlign=top;spacingLeft=4;spacingRight=4;overflow=hidden;rotatable=0;points=[[0,0.5],[1,0.5]];portConstraint=eastwest;" parent="kSkivTPudRlOcXTH8NW7-22" vertex="1">
          <mxGeometry y="26" width="200" height="26" as="geometry" />
        </mxCell>
        <mxCell id="kSkivTPudRlOcXTH8NW7-23" value="action:BRARConextActionProtocol" style="text;strokeColor=none;fillColor=none;align=left;verticalAlign=top;spacingLeft=4;spacingRight=4;overflow=hidden;rotatable=0;points=[[0,0.5],[1,0.5]];portConstraint=eastwest;" parent="kSkivTPudRlOcXTH8NW7-22" vertex="1">
          <mxGeometry y="52" width="200" height="26" as="geometry" />
        </mxCell>
        <mxCell id="kSkivTPudRlOcXTH8NW7-25" value="" style="line;strokeWidth=1;fillColor=none;align=left;verticalAlign=middle;spacingTop=-1;spacingLeft=3;spacingRight=3;rotatable=0;labelPosition=right;points=[];portConstraint=eastwest;" parent="kSkivTPudRlOcXTH8NW7-22" vertex="1">
          <mxGeometry y="78" width="200" height="8" as="geometry" />
        </mxCell>
        <mxCell id="kSkivTPudRlOcXTH8NW7-26" value="- clearAll;" style="text;strokeColor=none;fillColor=none;align=left;verticalAlign=top;spacingLeft=4;spacingRight=4;overflow=hidden;rotatable=0;points=[[0,0.5],[1,0.5]];portConstraint=eastwest;" parent="kSkivTPudRlOcXTH8NW7-22" vertex="1">
          <mxGeometry y="86" width="200" height="26" as="geometry" />
        </mxCell>
        <mxCell id="kSkivTPudRlOcXTH8NW7-27" value="- addMaskItem" style="text;strokeColor=none;fillColor=none;align=left;verticalAlign=top;spacingLeft=4;spacingRight=4;overflow=hidden;rotatable=0;points=[[0,0.5],[1,0.5]];portConstraint=eastwest;" parent="kSkivTPudRlOcXTH8NW7-22" vertex="1">
          <mxGeometry y="112" width="200" height="26" as="geometry" />
        </mxCell>
        <mxCell id="kSkivTPudRlOcXTH8NW7-28" value="- removeMaskItem;" style="text;strokeColor=none;fillColor=none;align=left;verticalAlign=top;spacingLeft=4;spacingRight=4;overflow=hidden;rotatable=0;points=[[0,0.5],[1,0.5]];portConstraint=eastwest;" parent="kSkivTPudRlOcXTH8NW7-22" vertex="1">
          <mxGeometry y="138" width="200" height="26" as="geometry" />
        </mxCell>
        <mxCell id="kSkivTPudRlOcXTH8NW7-29" value="- addGestureItems;" style="text;strokeColor=none;fillColor=none;align=left;verticalAlign=top;spacingLeft=4;spacingRight=4;overflow=hidden;rotatable=0;points=[[0,0.5],[1,0.5]];portConstraint=eastwest;" parent="kSkivTPudRlOcXTH8NW7-22" vertex="1">
          <mxGeometry y="164" width="200" height="26" as="geometry" />
        </mxCell>
        <mxCell id="kSkivTPudRlOcXTH8NW7-30" value="- removeAllGestureItems;" style="text;strokeColor=none;fillColor=none;align=left;verticalAlign=top;spacingLeft=4;spacingRight=4;overflow=hidden;rotatable=0;points=[[0,0.5],[1,0.5]];portConstraint=eastwest;" parent="kSkivTPudRlOcXTH8NW7-22" vertex="1">
          <mxGeometry y="190" width="200" height="26" as="geometry" />
        </mxCell>
        <mxCell id="kSkivTPudRlOcXTH8NW7-31" value="- clearBeauty;" style="text;strokeColor=none;fillColor=none;align=left;verticalAlign=top;spacingLeft=4;spacingRight=4;overflow=hidden;rotatable=0;points=[[0,0.5],[1,0.5]];portConstraint=eastwest;" parent="kSkivTPudRlOcXTH8NW7-22" vertex="1">
          <mxGeometry y="216" width="200" height="26" as="geometry" />
        </mxCell>
        <mxCell id="kSkivTPudRlOcXTH8NW7-32" value="- setBeautyParameters;" style="text;strokeColor=none;fillColor=none;align=left;verticalAlign=top;spacingLeft=4;spacingRight=4;overflow=hidden;rotatable=0;points=[[0,0.5],[1,0.5]];portConstraint=eastwest;" parent="kSkivTPudRlOcXTH8NW7-22" vertex="1">
          <mxGeometry y="242" width="200" height="26" as="geometry" />
        </mxCell>
        <mxCell id="kSkivTPudRlOcXTH8NW7-33" value="- hasAREnable等" style="text;strokeColor=none;fillColor=none;align=left;verticalAlign=top;spacingLeft=4;spacingRight=4;overflow=hidden;rotatable=0;points=[[0,0.5],[1,0.5]];portConstraint=eastwest;" parent="kSkivTPudRlOcXTH8NW7-22" vertex="1">
          <mxGeometry y="268" width="200" height="26" as="geometry" />
        </mxCell>
        <mxCell id="kSkivTPudRlOcXTH8NW7-34" value="- switchToRunningAction" style="text;strokeColor=none;fillColor=none;align=left;verticalAlign=top;spacingLeft=4;spacingRight=4;overflow=hidden;rotatable=0;points=[[0,0.5],[1,0.5]];portConstraint=eastwest;" parent="kSkivTPudRlOcXTH8NW7-22" vertex="1">
          <mxGeometry y="294" width="200" height="26" as="geometry" />
        </mxCell>
        <mxCell id="kSkivTPudRlOcXTH8NW7-35" value="- switchToPendingAction" style="text;strokeColor=none;fillColor=none;align=left;verticalAlign=top;spacingLeft=4;spacingRight=4;overflow=hidden;rotatable=0;points=[[0,0.5],[1,0.5]];portConstraint=eastwest;" parent="kSkivTPudRlOcXTH8NW7-22" vertex="1">
          <mxGeometry y="320" width="200" height="26" as="geometry" />
        </mxCell>
        <mxCell id="kSkivTPudRlOcXTH8NW7-36" value="BRARProvder" style="html=1;" parent="1" vertex="1">
          <mxGeometry x="430" y="587" width="200" height="50" as="geometry" />
        </mxCell>
        <mxCell id="kSkivTPudRlOcXTH8NW7-37" style="edgeStyle=orthogonalEdgeStyle;rounded=0;orthogonalLoop=1;jettySize=auto;html=1;exitX=1;exitY=0.5;exitDx=0;exitDy=0;entryX=0;entryY=0.5;entryDx=0;entryDy=0;" parent="1" source="kSkivTPudRlOcXTH8NW7-23" target="kSkivTPudRlOcXTH8NW7-42" edge="1">
          <mxGeometry relative="1" as="geometry">
            <mxPoint x="319" y="335" as="targetPoint" />
          </mxGeometry>
        </mxCell>
        <mxCell id="kSkivTPudRlOcXTH8NW7-40" value="&lt;interface&gt;&#xa;BRCallARContextProtocol" style="swimlane;fontStyle=0;childLayout=stackLayout;horizontal=1;startSize=26;fillColor=none;horizontalStack=0;resizeParent=1;resizeParentMax=0;resizeLast=0;collapsible=1;marginBottom=0;" parent="1" vertex="1">
          <mxGeometry x="320" y="330" width="200" height="100" as="geometry" />
        </mxCell>
        <mxCell id="kSkivTPudRlOcXTH8NW7-41" value="- clearAll" style="text;strokeColor=none;fillColor=none;align=left;verticalAlign=top;spacingLeft=4;spacingRight=4;overflow=hidden;rotatable=0;points=[[0,0.5],[1,0.5]];portConstraint=eastwest;" parent="kSkivTPudRlOcXTH8NW7-40" vertex="1">
          <mxGeometry y="26" width="200" height="26" as="geometry" />
        </mxCell>
        <mxCell id="kSkivTPudRlOcXTH8NW7-42" value="- addMaskItem" style="text;strokeColor=none;fillColor=none;align=left;verticalAlign=top;spacingLeft=4;spacingRight=4;overflow=hidden;rotatable=0;points=[[0,0.5],[1,0.5]];portConstraint=eastwest;" parent="kSkivTPudRlOcXTH8NW7-40" vertex="1">
          <mxGeometry y="52" width="200" height="26" as="geometry" />
        </mxCell>
        <mxCell id="kSkivTPudRlOcXTH8NW7-43" value="......." style="text;strokeColor=none;fillColor=none;align=left;verticalAlign=top;spacingLeft=4;spacingRight=4;overflow=hidden;rotatable=0;points=[[0,0.5],[1,0.5]];portConstraint=eastwest;" parent="kSkivTPudRlOcXTH8NW7-40" vertex="1">
          <mxGeometry y="78" width="200" height="22" as="geometry" />
        </mxCell>
      </root>
    </mxGraphModel>
  </diagram>
</mxfile>
